<?xml version="1.0" encoding="UTF-8"?>
<svg width="700pt" height="700pt" version="1.1" viewBox="0 0 700 550" xmlns="http://www.w3.org/2000/svg" xmlns:xlink="http://www.w3.org/1999/xlink">
 <g>
  <path d="m375.74 38.66c-6.8281-6.8242-16.086-10.66-25.742-10.66s-18.914 3.8359-25.742 10.66l-215.59 215.6c-6.8281 6.8281-10.664 16.086-10.664 25.742s3.8359 18.914 10.664 25.742l215.59 215.59c6.8281 6.8281 16.086 10.664 25.742 10.664s18.914-3.8359 25.742-10.664l215.59-215.59c6.8281-6.8281 10.664-16.086 10.664-25.742s-3.8359-18.914-10.664-25.742zm-25.742 417.98v0.003907c-5.125 0-10.043-2.0352-13.664-5.6602-3.625-3.625-5.6602-8.5391-5.6602-13.664s2.0352-10.039 5.6602-13.664c3.6211-3.625 8.5391-5.6602 13.664-5.6602s10.039 2.0352 13.66 5.6602c3.625 3.625 5.6602 8.5391 5.6602 13.664s-2.0352 10.039-5.6602 13.664c-3.6211 3.6211-8.5352 5.6602-13.66 5.6602zm19.324-107.35v0.003906c0 6.9023-3.6836 13.281-9.6602 16.734-5.9805 3.4531-13.348 3.4531-19.324 0-5.9805-3.4531-9.6641-9.832-9.6641-16.734v-226.62c0-6.9023 3.6836-13.281 9.6641-16.734 5.9766-3.4531 13.344-3.4531 19.324 0 5.9766 3.4531 9.6602 9.832 9.6602 16.734z"/>
  
 </g>
</svg>
