<?xml version="1.0" encoding="UTF-8"?>
<svg width="700pt" height="700pt" version="1.1" viewBox="0 0 700 550" xmlns="http://www.w3.org/2000/svg" xmlns:xlink="http://www.w3.org/1999/xlink">
 <g>
  <path d="m474.38 164.09v-128.27c0-2.25-0.89453-9.5742-12.27-9.5742h-226.41c-3.0352 0-10.078 1.0664-10.078 10.938v126.9c0 61.293 39.969 112.77 93.781 127.24-52.551 15.25-93.781 67.934-93.781 126.87v99.145c0 9.5117 6.3164 16.406 15.008 16.406h214.01c12.828 0 19.75-8.8281 19.75-17.133l-0.003906-98.418c0-52.754-38.527-110.66-93.809-126.87 53.812-14.457 93.801-65.941 93.801-127.24zm-104.07 178.45c6.3008 15.277 12.242 29.707 17.449 39.305 7.4453 13.719 18.184 27.23 28.578 40.293 14.777 18.586 28.742 36.145 28.742 49.141v30.02c0 1.4531 0 3.2656-5.3906 3.2656h-180.1c-4.6641 0-4.6641-2.3633-4.6641-3.6328v-29.617c0-21.445 15.637-38.852 32.191-57.277 10.035-11.164 20.414-22.723 27.223-35.453 4.8906-9.1719 10.484-23.102 16.406-37.852 6.2656-15.594 13.797-34.387 19.129-42.707 5.5625 8.4492 13.402 27.445 20.438 44.516zm95.324 75.664v98.422c0 4.1641-3.7812 8.3828-11 8.3828l-214.01-0.003906c-3.8594 0-6.2578-2.9297-6.2578-7.6562v-99.145c0-62.117 48.824-116.88 106.55-122.16-4.9258 8.5742-10.676 22.445-18.297 41.441-5.582 13.887-11.34 28.246-16.012 36.996-6.3008 11.797-16.32 22.941-26.016 33.723-16.93 18.84-34.43 38.316-34.43 63.121v29.617c0 7.5156 5.2656 12.383 13.414 12.383h180.11c13.125 0 14.141-9.1953 14.141-12.016v-30.02c0-16.055-14.883-34.773-30.652-54.59-10.148-12.766-20.648-25.969-27.73-39.016-4.9805-9.1953-11.121-24.078-17.055-38.465-8.1797-19.863-14.324-34.293-19.539-43.156 61.672 5.4648 106.78 66.855 106.78 122.14zm-115.63-131.43c-63.762 0-115.63-55.039-115.63-122.68v-126.89c0-1.4883 0.24609-2.0117 0.22656-2.0469 0.074219-0.027344 0.37891-0.14062 1.1133-0.14062h226.41c2.8086 0 3.543 0.62109 3.5156 0.82422v128.27c0.003906 67.645-51.867 122.68-115.63 122.68z"/>
  <path d="m439.81 186.71c-0.18359 0-0.75391 0.035157-0.92578 0.050781-33.391 4.2344-65.922 1.707-93.922-7.4219-25.762-8.3906-56.789-10.027-88.242-4.8281-2.7227 0.45313-4.8125 2.7383-6.082 4.5781-1.1016 1.582-2.8516 4.6719-2.293 7.6055 9.957 51.23 52.699 88.398 101.66 88.398 45.246 0 86.074-32.312 99.305-78.566 0.52344-1.8203 0.097656-3.7695-1.207-5.5039-1.6133-2.1406-4.9727-4.3125-8.2891-4.3125zm-89.809 79.633c-44.766 0-83.914-34.195-93.047-80.605 0.15625-0.72656 1.2773-2.4141 1.1914-2.5898 11.531-1.9062 23.066-2.8789 34.273-2.8789 18.008 0 34.773 2.4844 49.812 7.3945 20.074 6.5469 42.062 9.8516 65.355 9.8516 10.633 0 21.535-0.69922 32.148-2.0664 0.17578 0.015626 0.42969 0.14063 0.67188 0.28125-12.637 41.668-49.578 70.613-90.406 70.613z"/>
 </g>
</svg>
